<svg width="1920" height="1080" viewBox="0 0 1920 1080" fill="none" xmlns="http://www.w3.org/2000/svg">
  <defs>
    <linearGradient id="heroGradient" x1="0%" y1="0%" x2="100%" y2="100%">
      <stop offset="0%" style="stop-color:#1e3a8a;stop-opacity:0.9" />
      <stop offset="50%" style="stop-color:#3b82f6;stop-opacity:0.7" />
      <stop offset="100%" style="stop-color:#60a5fa;stop-opacity:0.5" />
    </linearGradient>
    <pattern id="buildingPattern" patternUnits="userSpaceOnUse" width="100" height="100">
      <rect width="100" height="100" fill="#f8fafc" opacity="0.1"/>
      <path d="M10 90 L30 70 L30 90 Z M40 90 L60 60 L60 90 Z M70 90 L90 50 L90 90 Z" fill="#ffffff" opacity="0.2"/>
    </pattern>
  </defs>
  
  <!-- Background -->
  <rect width="1920" height="1080" fill="url(#heroGradient)"/>
  
  <!-- Building silhouettes pattern -->
  <rect width="1920" height="1080" fill="url(#buildingPattern)"/>
  
  <!-- Modern building silhouettes -->
  <g opacity="0.3">
    <!-- Building 1 -->
    <rect x="100" y="400" width="80" height="680" fill="#ffffff" opacity="0.1"/>
    <rect x="110" y="420" width="60" height="20" fill="#fbbf24" opacity="0.6"/>
    <rect x="110" y="460" width="60" height="20" fill="#fbbf24" opacity="0.4"/>
    <rect x="110" y="500" width="60" height="20" fill="#fbbf24" opacity="0.6"/>
    
    <!-- Building 2 -->
    <rect x="200" y="300" width="100" height="780" fill="#ffffff" opacity="0.15"/>
    <rect x="220" y="320" width="60" height="25" fill="#fbbf24" opacity="0.5"/>
    <rect x="220" y="370" width="60" height="25" fill="#fbbf24" opacity="0.7"/>
    <rect x="220" y="420" width="60" height="25" fill="#fbbf24" opacity="0.4"/>
    
    <!-- Building 3 -->
    <rect x="320" y="350" width="90" height="730" fill="#ffffff" opacity="0.12"/>
    <rect x="335" y="380" width="60" height="22" fill="#fbbf24" opacity="0.6"/>
    <rect x="335" y="430" width="60" height="22" fill="#fbbf24" opacity="0.5"/>
    
    <!-- Building 4 (far right) -->
    <rect x="1600" y="250" width="120" height="830" fill="#ffffff" opacity="0.1"/>
    <rect x="1620" y="280" width="80" height="30" fill="#fbbf24" opacity="0.4"/>
    <rect x="1620" y="340" width="80" height="30" fill="#fbbf24" opacity="0.6"/>
    
    <!-- Building 5 -->
    <rect x="1450" y="400" width="100" height="680" fill="#ffffff" opacity="0.13"/>
    <rect x="1470" y="430" width="60" height="25" fill="#fbbf24" opacity="0.5"/>
    <rect x="1470" y="480" width="60" height="25" fill="#fbbf24" opacity="0.7"/>
  </g>
  
  <!-- Geometric design elements -->
  <g opacity="0.2">
    <circle cx="1600" cy="200" r="100" fill="none" stroke="#ffffff" stroke-width="2"/>
    <circle cx="1600" cy="200" r="150" fill="none" stroke="#ffffff" stroke-width="1" opacity="0.5"/>
    <polygon points="300,150 350,100 400,150 350,200" fill="none" stroke="#ffffff" stroke-width="2"/>
  </g>
  
  <!-- Professional overlay text area -->
  <rect x="0" y="0" width="1920" height="1080" fill="url(#heroGradient)" opacity="0.3"/>
  
  <!-- Subtle grid pattern -->
  <defs>
    <pattern id="grid" width="50" height="50" patternUnits="userSpaceOnUse">
      <path d="M 50 0 L 0 0 0 50" fill="none" stroke="#ffffff" stroke-width="0.5" opacity="0.1"/>
    </pattern>
  </defs>
  <rect width="1920" height="1080" fill="url(#grid)"/>
</svg>